<svg width="129" height="122" viewBox="0 0 129 122" fill="none" xmlns="http://www.w3.org/2000/svg">
<g filter="url(#filter0_d_604_547)">
<path fill-rule="evenodd" clip-rule="evenodd" d="M68.2785 91.5027L63.5845 84.0709C62.6028 84.4181 61.5967 84.7239 60.5679 84.9857C59.5389 85.2476 58.509 85.4599 57.4806 85.6241L56.9097 94.3957L41.8289 93.4143L42.3995 84.6458C40.377 84.0464 38.4191 83.263 36.5501 82.3102L30.9309 89.073L19.3071 79.4148L24.9208 72.6587C23.6496 71.0067 22.5204 69.2256 21.5561 67.3291L13.0421 69.4956L9.31519 54.8496L17.8293 52.6831C17.7698 50.5566 17.9103 48.4527 18.2372 46.3944L10.0769 43.1432L15.6705 29.1037L23.8386 32.3581C25.0248 30.6276 26.3703 29.0035 27.8605 27.5101L23.1679 20.0804L35.9454 12.0101L40.6397 19.4424C41.6215 19.0951 42.6277 18.7893 43.6567 18.5274C44.6856 18.2656 45.7155 18.0533 46.7438 17.8891L47.3147 9.11709L62.3955 10.0985L61.8249 18.8673C63.8477 19.4668 65.806 20.2503 67.6752 21.2034L73.2938 14.4413L84.9176 24.0996L79.3043 30.8552C80.5752 32.5069 81.7042 34.2878 82.6684 36.184L91.1818 34.0176L94.9086 48.6636L86.3953 50.83C86.4547 52.9567 86.3142 55.0608 85.9873 57.1194L94.1467 60.3702L88.5531 74.4097L80.3856 71.1556C79.1994 72.886 77.8539 74.51 76.3637 76.0033L81.056 83.4324L68.2785 91.5027Z" fill="black"/>
<path fill-rule="evenodd" clip-rule="evenodd" d="M104.943 113.388L103.503 108.958C102.954 109.008 102.397 109.033 101.835 109.033C101.272 109.033 100.716 109.008 100.166 108.958L98.7265 113.388L91.1102 110.913L92.5491 106.485C91.5888 105.913 90.6858 105.255 89.8506 104.521L86.0812 107.26L81.374 100.781L85.1396 98.045C84.7027 97.0306 84.3556 95.9684 84.1082 94.8685H79.4526V86.8602H84.108C84.3554 85.7603 84.7025 84.6981 85.1394 83.6837L81.3738 80.9478L86.0809 74.4689L89.8502 77.2074C90.6855 76.4738 91.5886 75.8156 92.549 75.2435L91.1101 70.815L98.7265 68.3403L100.166 72.7703C100.715 72.7202 101.272 72.6947 101.835 72.6947C102.397 72.6947 102.954 72.7202 103.504 72.7703L104.943 68.3403L112.559 70.815L111.12 75.2434C112.081 75.8156 112.984 76.4739 113.82 77.2077L117.589 74.4693L122.296 80.9481L118.53 83.684C118.967 84.6983 119.314 85.7604 119.562 86.8602H124.217V94.8685H119.561C119.314 95.9683 118.967 97.0304 118.53 98.0447L122.296 100.781L117.589 107.259L113.819 104.521C112.984 105.254 112.081 105.913 111.12 106.485L112.559 110.913L104.943 113.388Z" fill="black"/>
</g>
<defs>
<filter id="filter0_d_604_547" x="5.31519" y="9.11707" width="122.901" height="112.271" filterUnits="userSpaceOnUse" color-interpolation-filters="sRGB">
<feFlood flood-opacity="0" result="BackgroundImageFix"/>
<feColorMatrix in="SourceAlpha" type="matrix" values="0 0 0 0 0 0 0 0 0 0 0 0 0 0 0 0 0 0 127 0" result="hardAlpha"/>
<feOffset dy="4"/>
<feGaussianBlur stdDeviation="2"/>
<feComposite in2="hardAlpha" operator="out"/>
<feColorMatrix type="matrix" values="0 0 0 0 0 0 0 0 0 0 0 0 0 0 0 0 0 0 0.25 0"/>
<feBlend mode="normal" in2="BackgroundImageFix" result="effect1_dropShadow_604_547"/>
<feBlend mode="normal" in="SourceGraphic" in2="effect1_dropShadow_604_547" result="shape"/>
</filter>
</defs>
</svg>
